<mxfile host="app.diagrams.net" modified="2024-06-02T08:36:12.761Z" agent="Mozilla/5.0 (Macintosh; Intel Mac OS X 10_15_7) AppleWebKit/537.36 (KHTML, like Gecko) Chrome/125.0.0.0 Safari/537.36" etag="lJlC7LgiFaJrZhNHCDS7" version="24.4.0" type="github">
  <diagram name="第 1 页" id="X8YOefKCDvTudBZQxyhe">
    <mxGraphModel dx="1194" dy="581" grid="1" gridSize="10" guides="1" tooltips="1" connect="1" arrows="1" fold="1" page="1" pageScale="1" pageWidth="1654" pageHeight="2336" math="0" shadow="0">
      <root>
        <mxCell id="0" />
        <mxCell id="1" parent="0" />
        <mxCell id="ALH64aV9VW0NBlJwiQmd-4" style="edgeStyle=orthogonalEdgeStyle;rounded=0;orthogonalLoop=1;jettySize=auto;html=1;exitX=0.5;exitY=0.5;exitDx=0;exitDy=0;exitPerimeter=0;entryX=0;entryY=0.5;entryDx=0;entryDy=0;" edge="1" parent="1" source="ALH64aV9VW0NBlJwiQmd-1" target="ALH64aV9VW0NBlJwiQmd-3">
          <mxGeometry relative="1" as="geometry" />
        </mxCell>
        <mxCell id="ALH64aV9VW0NBlJwiQmd-1" value="Actor" style="shape=umlActor;verticalLabelPosition=bottom;verticalAlign=top;html=1;outlineConnect=0;" vertex="1" parent="1">
          <mxGeometry x="90" y="235" width="30" height="60" as="geometry" />
        </mxCell>
        <mxCell id="ALH64aV9VW0NBlJwiQmd-10" style="edgeStyle=orthogonalEdgeStyle;rounded=0;orthogonalLoop=1;jettySize=auto;html=1;exitX=1;exitY=0.5;exitDx=0;exitDy=0;entryX=0;entryY=0.5;entryDx=0;entryDy=0;" edge="1" parent="1" source="ALH64aV9VW0NBlJwiQmd-3" target="ALH64aV9VW0NBlJwiQmd-5">
          <mxGeometry relative="1" as="geometry">
            <Array as="points">
              <mxPoint x="310" y="265" />
              <mxPoint x="310" y="190" />
            </Array>
          </mxGeometry>
        </mxCell>
        <mxCell id="ALH64aV9VW0NBlJwiQmd-3" value="接入层" style="rounded=0;whiteSpace=wrap;html=1;" vertex="1" parent="1">
          <mxGeometry x="220" y="160" width="60" height="210" as="geometry" />
        </mxCell>
        <mxCell id="ALH64aV9VW0NBlJwiQmd-11" style="edgeStyle=orthogonalEdgeStyle;rounded=0;orthogonalLoop=1;jettySize=auto;html=1;exitX=1;exitY=0.5;exitDx=0;exitDy=0;entryX=1;entryY=0.5;entryDx=0;entryDy=0;" edge="1" parent="1" source="ALH64aV9VW0NBlJwiQmd-5" target="ALH64aV9VW0NBlJwiQmd-6">
          <mxGeometry relative="1" as="geometry" />
        </mxCell>
        <mxCell id="ALH64aV9VW0NBlJwiQmd-5" value="租户" style="rounded=1;whiteSpace=wrap;html=1;" vertex="1" parent="1">
          <mxGeometry x="350" y="160" width="120" height="60" as="geometry" />
        </mxCell>
        <mxCell id="ALH64aV9VW0NBlJwiQmd-12" style="edgeStyle=orthogonalEdgeStyle;rounded=0;orthogonalLoop=1;jettySize=auto;html=1;exitX=0;exitY=0.5;exitDx=0;exitDy=0;entryX=0;entryY=0.5;entryDx=0;entryDy=0;" edge="1" parent="1" source="ALH64aV9VW0NBlJwiQmd-6" target="ALH64aV9VW0NBlJwiQmd-7">
          <mxGeometry relative="1" as="geometry" />
        </mxCell>
        <mxCell id="ALH64aV9VW0NBlJwiQmd-6" value="用户" style="rounded=1;whiteSpace=wrap;html=1;" vertex="1" parent="1">
          <mxGeometry x="350" y="235" width="120" height="60" as="geometry" />
        </mxCell>
        <mxCell id="ALH64aV9VW0NBlJwiQmd-13" style="edgeStyle=orthogonalEdgeStyle;rounded=0;orthogonalLoop=1;jettySize=auto;html=1;exitX=1;exitY=0.5;exitDx=0;exitDy=0;entryX=0;entryY=0.5;entryDx=0;entryDy=0;" edge="1" parent="1" source="ALH64aV9VW0NBlJwiQmd-7" target="ALH64aV9VW0NBlJwiQmd-8">
          <mxGeometry relative="1" as="geometry">
            <Array as="points">
              <mxPoint x="520" y="340" />
              <mxPoint x="520" y="265" />
            </Array>
          </mxGeometry>
        </mxCell>
        <mxCell id="ALH64aV9VW0NBlJwiQmd-7" value="服务" style="rounded=1;whiteSpace=wrap;html=1;" vertex="1" parent="1">
          <mxGeometry x="350" y="310" width="120" height="60" as="geometry" />
        </mxCell>
        <mxCell id="ALH64aV9VW0NBlJwiQmd-16" style="edgeStyle=orthogonalEdgeStyle;rounded=0;orthogonalLoop=1;jettySize=auto;html=1;exitX=1;exitY=0.5;exitDx=0;exitDy=0;entryX=0;entryY=0.5;entryDx=0;entryDy=0;" edge="1" parent="1" source="ALH64aV9VW0NBlJwiQmd-8" target="ALH64aV9VW0NBlJwiQmd-14">
          <mxGeometry relative="1" as="geometry" />
        </mxCell>
        <mxCell id="ALH64aV9VW0NBlJwiQmd-8" value="智能客服" style="rounded=1;whiteSpace=wrap;html=1;" vertex="1" parent="1">
          <mxGeometry x="560" y="235" width="120" height="60" as="geometry" />
        </mxCell>
        <mxCell id="ALH64aV9VW0NBlJwiQmd-17" style="edgeStyle=orthogonalEdgeStyle;rounded=0;orthogonalLoop=1;jettySize=auto;html=1;exitX=1;exitY=0.5;exitDx=0;exitDy=0;entryX=1;entryY=0.5;entryDx=0;entryDy=0;" edge="1" parent="1" source="ALH64aV9VW0NBlJwiQmd-14" target="ALH64aV9VW0NBlJwiQmd-15">
          <mxGeometry relative="1" as="geometry" />
        </mxCell>
        <mxCell id="ALH64aV9VW0NBlJwiQmd-14" value="会话" style="rounded=1;whiteSpace=wrap;html=1;" vertex="1" parent="1">
          <mxGeometry x="740" y="160" width="120" height="60" as="geometry" />
        </mxCell>
        <mxCell id="ALH64aV9VW0NBlJwiQmd-19" style="edgeStyle=orthogonalEdgeStyle;rounded=0;orthogonalLoop=1;jettySize=auto;html=1;exitX=0;exitY=0.5;exitDx=0;exitDy=0;entryX=0;entryY=0.5;entryDx=0;entryDy=0;" edge="1" parent="1" source="ALH64aV9VW0NBlJwiQmd-15" target="ALH64aV9VW0NBlJwiQmd-18">
          <mxGeometry relative="1" as="geometry" />
        </mxCell>
        <mxCell id="ALH64aV9VW0NBlJwiQmd-15" value="消息记录" style="rounded=1;whiteSpace=wrap;html=1;" vertex="1" parent="1">
          <mxGeometry x="740" y="235" width="120" height="60" as="geometry" />
        </mxCell>
        <mxCell id="ALH64aV9VW0NBlJwiQmd-18" value="扣子" style="rounded=1;whiteSpace=wrap;html=1;" vertex="1" parent="1">
          <mxGeometry x="740" y="312.5" width="120" height="60" as="geometry" />
        </mxCell>
      </root>
    </mxGraphModel>
  </diagram>
</mxfile>
